<svg xmlns="http://www.w3.org/2000/svg" viewBox="0 0 532.46 147.27"><defs><style>.cls-1{fill:#fff;}</style></defs><g id="SVGs"><g id="LOGO_PRINCIPAL_H_-_B" data-name="LOGO PRINCIPAL H - B"><g id="NOMBRE_PRINCIPAL" data-name="NOMBRE PRINCIPAL"><path id="A" class="cls-1" d="M303.86,101.62,274.37,50.19a1.49,1.49,0,0,0-1.3-.68,1.68,1.68,0,0,0-1.4.68l-29.49,51.43c-.28.53,0,.9.74.9h9.24a2,2,0,0,0,1.68-.9l2.62-4.55a2.7,2.7,0,0,1,.57-.7l6.23-11a2.41,2.41,0,0,1,.19-.5L272,70.27c.37-.6.74-.9,1.12-.9s.74.3,1.12.9l5.49,9.57,2.9,5.06a1.74,1.74,0,0,1,.11.25l6.45,11.36a2.58,2.58,0,0,1,.44.56l2.62,4.55a2,2,0,0,0,1.77.9h9.15C303.86,102.52,304.14,102.15,303.86,101.62Z"/><path id="I" class="cls-1" d="M316,50.26h8.77c.75,0,1.21.37,1.21,1v50.32c0,.6-.46,1-1.21,1H316c-.75,0-1.21-.37-1.21-1V51.23C314.78,50.63,315.24,50.26,316,50.26Z"/><path id="D" class="cls-1" d="M341.37,50.26h15.49c2.52,0,4.29,0,5.32.08,20.44,1.12,30.7,13.58,30.7,26.05s-10.26,24.56-30.7,26.05c-1,.08-2.8.08-5.32.08H341.37c-.75,0-1.21-.37-1.21-1V51.23C340.16,50.63,340.62,50.26,341.37,50.26Zm10,41.73c0,1.27,1,2.09,2.62,2.09h2.42c2.71,0,4.3,0,5.32-.07,26.79-2.09,26-35.39-2.7-35.39h-5c-1.59,0-2.62.82-2.62,2.09Z"/><path id="E" class="cls-1" d="M405.57,51.23c0-.6.47-1,1.21-1h39.85c.75,0,1.21.37,1.21,1v6.42c0,.6-.46,1-1.21,1H419.38c-1.59,0-2.61.82-2.61,2.09v9.41c0,1.27,1,2.09,2.61,2.09h20.53c.75,0,1.21.37,1.21,1V79.6c0,.6-.46,1-1.21,1H419.38c-1.59,0-2.61.82-2.61,2.09v9.41c0,1.27,1,2.09,2.61,2.09h27.25c.75,0,1.21.37,1.21,1v6.42c0,.6-.46,1-1.21,1H406.78c-.74,0-1.21-.37-1.21-1Z"/><path id="N" class="cls-1" d="M512.23,50.26H496c-.58,0-1,.9-1,2V56.5c0,1.11.46,2,1,2h6.23V81c0,.74-.28,1.12-.65,1.12a1.75,1.75,0,0,1-1.12-.52L464.73,50.93a3.58,3.58,0,0,0-2-.67h-1.4c-.75,0-1.21.37-1.21,1v50.32c0,.6.46,1,1.21,1h8.77c.75,0,1.22-.37,1.22-1V71.61c0-.74.28-1.12.65-1.12a1.56,1.56,0,0,1,1.12.52l35.74,30.76a3.18,3.18,0,0,0,2.05.75h1.31c.75,0,1.21-.37,1.21-1V51.23C513.44,50.63,513,50.26,512.23,50.26Z"/></g><path id="ICONO" class="cls-1" d="M21,66.9C25.46,55.57,36.65,48,49.58,47.68c8.76-.24,23.14,2.48,42.14,16.77-1.29,1.3-2.57,2.61-3.88,4-12-9.46-22.39-14-31.8-13.69C38.28,55.19,34.8,71.34,35.82,81.3c.46,4.47,3.07,19,17.51,18.64,29.9-1,58.82-75.45,123.76-77.22,10-.28,21,1.56,27.71,4.8,22.95,11.14,34.54,31.91,34.67,49.34,0,26.08-21.88,46.37-50.9,47.16-21.14.58-46.93-11.21-76.7-35,1.46-1.29,2.92-2.6,4.34-3.93,14.14,11.48,40.3,28.21,60.64,31.56a36,36,0,0,0,19.3-1.78C217.65,106,221,72,208.56,51.3c-6.08-10.11-15.3-16-26.6-17l-.49,0c-22.34-.65-38,15.46-56,34.1-18.71,19.3-39.94,41.17-69.24,42a38.55,38.55,0,0,1-18.49-3.92C22.37,98.76,15.2,81.79,21,66.9Z"/></g></g></svg>