<svg xmlns="http://www.w3.org/2000/svg" xmlns:xlink="http://www.w3.org/1999/xlink" viewBox="0 0 532.46 147.27"><defs><style>.cls-1{fill:url(#Degradado_sin_nombre_2);}</style><linearGradient id="Degradado_sin_nombre_2" x1="431.78" y1="378.85" x2="432.78" y2="378.85" gradientTransform="matrix(-152.58, 150.8, 140.5, 126.36, 12871.27, -112987.37)" gradientUnits="userSpaceOnUse"><stop offset="0" stop-color="#d93b32"/><stop offset="0.02" stop-color="#c83643"/><stop offset="0.09" stop-color="#972873"/><stop offset="0.16" stop-color="#6d1c9c"/><stop offset="0.23" stop-color="#4b12be"/><stop offset="0.3" stop-color="#300ad8"/><stop offset="0.37" stop-color="#1d04ea"/><stop offset="0.45" stop-color="#1201f5"/><stop offset="0.53" stop-color="#0e00f9"/><stop offset="1" stop-color="#8beadc"/></linearGradient></defs><g id="SVGs"><g id="LOGO_PRINCIPAL_H" data-name="LOGO PRINCIPAL H"><g id="NOMBRE_PRINCIPAL" data-name="NOMBRE PRINCIPAL"><path id="A" d="M303.74,101.62,274.25,50.19a1.52,1.52,0,0,0-1.31-.68,1.69,1.69,0,0,0-1.4.68l-29.49,51.43c-.28.53,0,.9.75.9H252a2,2,0,0,0,1.68-.9l2.61-4.55a3.18,3.18,0,0,1,.57-.7l6.23-11a2,2,0,0,1,.2-.5l8.49-14.63c.38-.6.75-.9,1.12-.9s.75.3,1.12.9l5.5,9.57,2.9,5.06a1.74,1.74,0,0,1,.11.25L289,96.51a2.93,2.93,0,0,1,.44.56l2.61,4.55a2.06,2.06,0,0,0,1.78.9H303C303.74,102.52,304,102.15,303.74,101.62Z"/><path id="I" d="M315.87,50.26h8.77c.74,0,1.21.37,1.21,1v50.32c0,.6-.47,1-1.21,1h-8.77c-.75,0-1.22-.37-1.22-1V51.23C314.65,50.63,315.12,50.26,315.87,50.26Z"/><path id="D" d="M341.25,50.26h15.49c2.52,0,4.29,0,5.32.08,20.43,1.12,30.7,13.58,30.7,26.05s-10.27,24.56-30.7,26.05c-1,.08-2.8.08-5.32.08H341.25c-.75,0-1.22-.37-1.22-1V51.23C340,50.63,340.5,50.26,341.25,50.26Zm10,41.73c0,1.27,1,2.09,2.61,2.09h2.43c2.71,0,4.29,0,5.32-.07,26.78-2.09,26-35.39-2.71-35.39h-5c-1.58,0-2.61.82-2.61,2.09Z"/><path id="E" d="M405.44,51.23c0-.6.47-1,1.22-1h39.85c.74,0,1.21.37,1.21,1v6.42c0,.6-.47,1-1.21,1H419.26c-1.59,0-2.62.82-2.62,2.09v9.41c0,1.27,1,2.09,2.62,2.09h20.53c.74,0,1.21.37,1.21,1V79.6c0,.6-.47,1-1.21,1H419.26c-1.59,0-2.62.82-2.62,2.09v9.41c0,1.27,1,2.09,2.62,2.09h27.25c.74,0,1.21.37,1.21,1v6.42c0,.6-.47,1-1.21,1H406.66c-.75,0-1.22-.37-1.22-1Z"/><path id="N" d="M512.11,50.26H495.89c-.58,0-1.05.9-1.05,2V56.5c0,1.11.47,2,1.05,2h6.23V81c0,.74-.28,1.12-.65,1.12a1.71,1.71,0,0,1-1.12-.52L464.61,50.93a3.58,3.58,0,0,0-2-.67h-1.4c-.75,0-1.22.37-1.22,1v50.32c0,.6.47,1,1.22,1H470c.74,0,1.21-.37,1.21-1V71.61c0-.74.28-1.12.65-1.12A1.55,1.55,0,0,1,473,71l35.75,30.76a3.13,3.13,0,0,0,2.05.75h1.31c.74,0,1.21-.37,1.21-1V51.23C513.32,50.63,512.85,50.26,512.11,50.26Z"/></g><path id="ICONO" class="cls-1" d="M20.91,66.9C25.34,55.57,36.53,48,49.46,47.68c8.75-.24,23.14,2.48,42.14,16.77l-3.89,4c-12-9.46-22.39-14-31.79-13.69C38.16,55.19,34.67,71.34,35.7,81.3c.46,4.47,3.06,19,17.51,18.64C83.11,98.91,112,24.49,177,22.72c10-.28,21,1.56,27.71,4.8,22.94,11.14,34.54,31.91,34.67,49.34,0,26.08-21.88,46.37-50.91,47.16-21.14.58-46.93-11.21-76.69-35,1.46-1.29,2.92-2.6,4.33-3.93,14.14,11.48,40.31,28.21,60.64,31.56A36.07,36.07,0,0,0,196,114.82C217.53,106,220.87,72,208.44,51.3c-6.09-10.11-15.31-16-26.61-17l-.49,0c-22.33-.65-38,15.46-56,34.1-18.72,19.3-39.94,41.17-69.24,42a38.55,38.55,0,0,1-18.49-3.92C22.25,98.76,15.08,81.79,20.91,66.9Z"/></g></g></svg>