<svg id="JMCS_-_LOGO_AIDEN" data-name="JMCS - LOGO AIDEN" xmlns="http://www.w3.org/2000/svg" xmlns:xlink="http://www.w3.org/1999/xlink" viewBox="0 0 532.46 500"><defs><style>.cls-1{fill:url(#Degradado_sin_nombre_2);}</style><linearGradient id="Degradado_sin_nombre_2" x1="985.98" y1="549.98" x2="986.98" y2="549.98" gradientTransform="matrix(-152.58, 150.8, 140.5, 126.36, 73387.62, -218006.48)" gradientUnits="userSpaceOnUse"><stop offset="0" stop-color="#d93b32"/><stop offset="0.02" stop-color="#c83643"/><stop offset="0.09" stop-color="#972873"/><stop offset="0.16" stop-color="#6d1c9c"/><stop offset="0.23" stop-color="#4b12be"/><stop offset="0.3" stop-color="#300ad8"/><stop offset="0.37" stop-color="#1d04ea"/><stop offset="0.45" stop-color="#1201f5"/><stop offset="0.53" stop-color="#0e00f9"/><stop offset="1" stop-color="#8beadc"/></linearGradient></defs><g id="LOGO_PRINCIPAL_H" data-name="LOGO PRINCIPAL H"><g id="NOMBRE_PRINCIPAL" data-name="NOMBRE PRINCIPAL"><path id="A" d="M302.74,277.85l-29.49-51.44a1.53,1.53,0,0,0-1.31-.67,1.71,1.71,0,0,0-1.4.67l-29.49,51.44c-.28.52,0,.89.75.89H251a2,2,0,0,0,1.68-.89l2.61-4.56a3.38,3.38,0,0,1,.57-.69l6.23-11a1.87,1.87,0,0,1,.2-.5l8.49-14.64c.38-.59.75-.89,1.12-.89s.75.3,1.12.89l5.5,9.58,2.9,5.06a1.28,1.28,0,0,1,.11.24L288,272.73a3.28,3.28,0,0,1,.44.56l2.61,4.56a2.07,2.07,0,0,0,1.78.89H302C302.74,278.74,303,278.37,302.74,277.85Z"/><path id="I" d="M314.87,226.49h8.77c.74,0,1.21.37,1.21,1v50.31c0,.6-.47,1-1.21,1h-8.77c-.75,0-1.22-.37-1.22-1V227.46C313.65,226.86,314.12,226.49,314.87,226.49Z"/><path id="D" d="M340.25,226.49h15.49c2.52,0,4.29,0,5.32.07,20.43,1.12,30.7,13.59,30.7,26.06s-10.27,24.56-30.7,26.05c-1,.07-2.8.07-5.32.07H340.25c-.75,0-1.22-.37-1.22-1V227.46C339,226.86,339.5,226.49,340.25,226.49Zm10,41.73c0,1.27,1,2.09,2.61,2.09h2.43c2.71,0,4.29,0,5.32-.08,26.78-2.09,26-35.38-2.71-35.38h-5c-1.58,0-2.61.82-2.61,2.09Z"/><path id="E" d="M404.44,227.46c0-.6.47-1,1.22-1h39.85c.74,0,1.21.37,1.21,1v6.42c0,.59-.47,1-1.21,1H418.26c-1.59,0-2.62.82-2.62,2.09v9.4c0,1.27,1,2.09,2.62,2.09h20.53c.74,0,1.21.38,1.21,1v6.42c0,.59-.47,1-1.21,1H418.26c-1.59,0-2.62.82-2.62,2.09v9.4c0,1.27,1,2.09,2.62,2.09h27.25c.74,0,1.21.38,1.21,1v6.42c0,.6-.47,1-1.21,1H405.66c-.75,0-1.22-.37-1.22-1Z"/><path id="N" d="M511.11,226.49H494.89c-.58,0-1.05.9-1.05,2v4.22c0,1.12.47,2,1.05,2h6.23v22.5c0,.75-.28,1.12-.65,1.12a1.71,1.71,0,0,1-1.12-.52l-35.74-30.68a3.58,3.58,0,0,0-2-.67h-1.4c-.75,0-1.22.37-1.22,1v50.31c0,.6.47,1,1.22,1H469c.74,0,1.21-.37,1.21-1V247.84c0-.75.28-1.12.65-1.12a1.55,1.55,0,0,1,1.12.52L507.75,278a3.13,3.13,0,0,0,2.05.74h1.31c.74,0,1.21-.37,1.21-1V227.46C512.32,226.86,511.85,226.49,511.11,226.49Z"/></g><path id="ICONO" class="cls-1" d="M19.91,243.12c4.43-11.32,15.62-18.87,28.55-19.22,8.75-.24,23.14,2.48,42.14,16.77l-3.89,4c-12-9.46-22.39-13.95-31.79-13.7-17.76.49-21.25,16.63-20.22,26.6.46,4.46,3.06,19,17.51,18.63,29.9-1,58.82-75.45,123.76-77.22,10-.27,21,1.57,27.71,4.81,22.94,11.13,34.54,31.91,34.67,49.33,0,26.09-21.88,46.37-50.91,47.16-21.14.58-46.93-11.2-76.69-35.05,1.46-1.28,2.92-2.6,4.33-3.92,14.14,11.47,40.31,28.2,60.64,31.56A36,36,0,0,0,195,291c21.5-8.79,24.84-42.84,12.41-63.52-6.09-10.11-15.31-16-26.61-17h-.49c-22.33-.65-38,15.46-56,34.1-18.72,19.29-39.94,41.16-69.24,42a38.55,38.55,0,0,1-18.49-3.91C21.25,275,14.08,258,19.91,243.12Z"/></g></svg>